
<svg id="Layer_2" data-name="Layer 2" xmlns="http://www.w3.org/2000/svg" viewBox="0 0 377.35 785.63">
    <path class="cls-1" d="M186.27,785.63c-1.16-44.94,66.22-104.26,51.43-117.63-12.03-10.87-85.37,27.64-105.2,11.63-60.74-49.05,174.85-85.15,152.73-135.72C260.55,487.52-6.47,493.24.43,412.88c8.39-97.66,405.39,80.68,374.96-21.5-23.22-77.98-265.76-73.4-233.32-139.93,20.63-42.31,165.53-8.85,167.03-66.88,1.48-57.29-206.57,19.9-199.5-33.23,6.44-48.36,172.43-30.54,139.71-88.61-13.86-24.6-63.06-6.38-63.06-62.73"/>
</svg>