<?xml version="1.0" encoding="UTF-8"?>
<svg id="Layer_2" data-name="Layer 2" xmlns="http://www.w3.org/2000/svg" viewBox="0 0 727.38 702.99">
  <defs>
    <style>
      .cls-1 {
        fill: #231916;
      }
    </style>
  </defs>
  <g id="_레이어_1" data-name="레이어 1">
    <path class="cls-1" d="M.98,376.48c4.61-18.02,13.8-34.78,26.44-48.44,6.36-6.87,13.61-13.18,21.66-17.99,8.51-5.09,18.81-8.7,28.74-6.02,15.79,4.26,22.7,21.26,27.28,35.34,2.79,8.6,5.16,17.32,8.22,25.83,3.36,9.35,7.22,18.53,11.54,27.48,8.75,18.12,19.42,35.3,31.78,51.18,1.51,1.94,3.05,3.85,4.6,5.75.26.31.72.1.84-.22,7.97-22.62,13.16-46.19,15.51-70.06,2.35-23.87,1.87-48-1.46-71.75-1.87-13.35-4.65-26.57-8.31-39.54-.13-.46-.85-.49-.96,0-4.76,21.42-8,43.17-9.69,65.04-1.69,21.91-1.82,43.94-.39,65.87.8,12.29,2.11,24.54,3.88,36.73.07.48.69.42.91.12,13.77-18.57,25.05-39.35,30.74-61.86,5.33-21.06,5.39-43.49-1.42-64.23-3.71-11.32-9.48-21.93-17.25-30.98l-.61.79c12,8.71,21.55,20.39,28.35,33.53,6.86,13.27,10.98,27.92,12.64,42.74,1.74,15.58.66,31.28-2.71,46.57-3.79,17.15-10.23,33.61-18.22,49.22-8.05,15.75-17.64,30.66-27.92,45.04-1.26,1.76-2.53,3.52-3.81,5.27l.93.25c1.51-29.03,2.72-58.07,3.61-87.12.89-28.89,1.47-57.78,1.74-86.68.15-16.28.21-32.55.17-48.83l-.85.35c15.72,17.96,26.4,39.98,31.67,63.21s5.18,47.74-.57,70.87c-3.21,12.93-8.21,25.38-14.95,36.88-.3.51.37.97.79.61,19.63-17.12,33.2-40.87,38.35-66.38,5.17-25.65,1.27-52.48-10.42-75.84-6.59-13.17-15.59-25.13-26.54-34.99-.43-.39-1.04.09-.79.61,9.98,20.06,21.46,39.34,33.88,57.97,12.39,18.59,25.7,36.55,39.4,54.19,13.82,17.81,28.05,35.29,42.2,52.84,14.17,17.57,28.28,35.2,41.84,53.25,13.45,17.92,26.36,36.27,38.18,55.31,1.48,2.39,2.94,4.79,4.39,7.19.33.55,1.19.05.86-.5-11.22-19.05-16.54-40.67-21.59-61.99-5.01-21.17-10.06-42.42-20.04-61.91s-22.6-35.32-37.04-50.43c-14.8-15.49-31.08-29.48-47.51-43.19-8.2-6.84-16.34-13.82-25.18-19.84-8.71-5.94-18.29-11.01-28.72-13.05-2.46-.48-4.95-.78-7.45-.92-.47-.03-.72.74-.25.93,18.77,7.93,36.75,17.66,53.7,28.96,16.91,11.28,32.78,24.11,47.4,38.23,14.72,14.22,28.17,29.75,40.15,46.34,11.85,16.42,22.25,33.88,31,52.14,8.84,18.44,15.97,37.69,21.19,57.46.63,2.4,1.24,4.82,1.82,7.23.15.64,1.05.35.96-.27-3.12-22.28-8.72-44.18-16.57-65.26s-17.82-41.19-29.72-60.18c-11.91-19.01-25.72-36.83-41.15-53.12s-32.45-31.01-50.83-43.85c-18.36-12.83-38.07-23.75-58.75-32.37-2.6-1.08-5.21-2.13-7.84-3.14-.31-.12-.63.19-.63.48-.6,23.93,5.27,47.42,13.41,69.76,8.06,22.12,17.96,43.63,28.19,64.81,10.16,21.04,21.05,41.74,32.63,62.03,11.58,20.3,23.87,40.19,36.82,59.64,12.95,19.45,26.57,38.46,40.83,56.97,1.68,2.18,3.37,4.36,5.07,6.53l.71-.71c-16.04-13.96-29.9-30.36-41.04-48.47-11.25-18.29-19.68-38.25-24.9-59.09-5.86-23.41-8.02-47.51-11.67-71.32-1.82-11.87-4.01-23.7-7.23-35.28-3.11-11.22-7.28-22.1-12.27-32.61-10.05-21.14-23.12-40.65-36.43-59.84-1.62-2.34-3.25-4.68-4.88-7.01l-.43.75c25.58,2.21,50.99,6.39,75.92,12.52,24.68,6.06,48.89,13.99,72.36,23.74,10.67,4.43,21.77,9.3,29.52,18.19s11,20,13.57,30.97c5.91,25.23,9.15,51.13,9.92,77.03.78,26.21-1.02,52.5-5.43,78.35-.54,3.14-1.11,6.27-1.72,9.4h.96c-3.38-17.29-7.19-34.5-11.41-51.61s-8.87-34.11-13.93-50.99c-5.06-16.88-10.52-33.64-16.39-50.25-5.87-16.61-12.14-33.09-18.81-49.39-6.6-16.14-13.59-32.13-20.95-47.93-7.44-15.97-15.28-31.76-23.49-47.35-8.21-15.59-16.81-30.98-25.77-46.15-9.31-15.75-19.04-31.25-29.11-46.54-10.4-15.79-21.14-31.36-32.06-46.79-10.97-15.51-22.13-30.88-33.32-46.23-2.75-3.77-5.5-7.54-8.26-11.31l-.79.61c13.09,12.24,25.61,25.07,37.57,38.41s23.38,27.22,34.25,41.48,21.12,28.83,30.92,43.77,19.22,30.38,28.12,45.98,17.3,31.36,25.33,47.36c8.55,17.05,16.64,34.34,24.36,51.78,8.07,18.24,15.73,36.67,23.07,55.22,7.3,18.45,14.29,37.03,21.05,55.68,6.8,18.74,13.37,37.57,19.82,56.43,6.43,18.79,12.73,37.62,19,56.46,1.54,4.61,3.07,9.23,4.61,13.84l.48-.63c-25.16-1.01-48.64-11.68-68.94-26.06-20.39-14.45-38.18-32.56-54.19-51.66s-30.07-39.74-42.09-61.53c-12.02-21.8-21.96-44.75-29.62-68.43-7.7-23.8-13.12-48.36-16.02-73.21-.35-2.98-.66-5.96-.93-8.95l-.75.43c26.9,14,53.81,28,80.71,42,26.76,13.92,53.51,27.85,80.27,41.77,26.9,14,53.81,28,80.71,42,26.76,13.92,53.51,27.85,80.27,41.77,26.9,14,53.81,28,80.71,42,3.25,1.69,6.5,3.38,9.76,5.08l.39-.91c-18.71-3.06-37.39-6.34-56.02-9.86-18.55-3.5-37.06-7.23-55.53-11.19s-37.03-8.18-55.47-12.62c-18.44-4.43-36.82-9.1-55.14-13.99-18.24-4.87-36.43-9.96-54.54-15.28s-36.32-10.9-54.38-16.69-35.89-11.75-53.72-17.96c-17.71-6.16-35.36-12.52-52.85-19.28-17.56-6.78-34.96-13.98-52.08-21.8-8.47-3.87-16.86-7.89-25.17-12.09-4.15-2.1-8.29-4.24-12.39-6.43-3.41-1.82-6.8-3.73-9.54-6.51-2.51-2.55-4.27-5.83-3.27-9.46l-.48.37c28.51,1.01,55.65,11.29,81,23.68,21.35,10.44,41.95,22.46,61.47,36.02s37.73,28.47,54.54,45.05c16.6,16.36,31.73,34.27,44.68,53.66s23.52,39.86,31.33,61.6c3.88,10.8,7.23,21.91,9.44,33.18,2.21,11.31,3.18,23.57-.46,34.7-1.76,5.38-4.7,10.33-8.8,14.24s-9.31,6.66-14.79,8.27c-11.34,3.33-23.58,2.37-35.04.17-22.13-4.25-43.12-13.27-61.9-25.65-19.02-12.54-35.75-28.41-49.95-46.17-14.38-17.99-26.25-37.99-35.36-59.13-11.14-25.83-18.45-53.43-21.97-81.32-3.25-25.71-3.57-52.09,1.31-77.62,4.58-23.95,13.98-47.32,30.13-65.86,14.3-16.41,34.28-27.53,55.68-31.41,20.74-3.76,43.15-.24,59.93,13.12,19.5,15.52,28.56,40.08,35,63.33,7.96,28.7,13.17,58.11,16.9,87.64s6.09,59.57,8.17,89.42,3.81,61.34,5.03,92.04c1.22,30.7,1.97,61.43,2.27,92.15.14,14.78.18,29.56.11,44.35h1c-.81-27.49,2.79-54.9,8.9-81.66,6.13-26.84,14.7-53.06,23.94-78.97,8.54-23.94,17.62-47.69,27.21-71.23s19.75-46.97,30.39-70.11c10.6-23.05,21.7-45.87,33.29-68.43,11.59-22.57,23.68-44.88,36.24-66.92,12.56-22.04,25.61-43.81,39.12-65.28s27.49-42.65,41.92-63.52,29.32-41.41,44.66-61.62c15.4-20.29,31.24-40.25,47.52-59.84,3.91-4.71,7.85-9.4,11.81-14.07l-.49.13c5.47,1.83,10.95,3.66,16.42,5.48l-.35-.62c-5.23,19.5-10.55,38.98-15.94,58.44-5.4,19.46-10.88,38.89-16.44,58.3-5.56,19.41-11.2,38.8-16.93,58.16s-11.48,38.55-17.34,57.78-11.85,38.61-17.9,57.87c-6.05,19.27-12.18,38.51-18.39,57.72-3.1,9.61-6.23,19.21-9.37,28.8-2.31,7.04-5.02,14.12-9.78,19.91-2.04,2.48-4.49,4.73-7.44,6.07-1.49.68-3.09,1.1-4.73,1.2-.77.05-1.54.03-2.31-.05-.63-.07-.72,0-.94-.56-.25-.65-.3-1.52-.44-2.2-1.97-9.96-3.94-19.92-5.9-29.88-3.97-20.08-7.93-40.16-11.9-60.25-3.97-20.08-7.93-40.16-11.9-60.25-.97-4.9-1.94-9.8-2.9-14.69-.09-.46-.68-.43-.91-.12-12.5,17.18-23.97,35.1-34.35,53.64-10.29,18.39-19.49,37.38-27.57,56.84-8.12,19.55-15.08,39.59-20.85,59.96-2.89,10.22-5.48,20.53-7.75,30.9-2.09,9.52-4.55,19.41-3.84,29.23.64,8.82,4.54,16.9,12.24,21.62,7.29,4.47,16.33,5.56,24.72,4.98,17.96-1.25,34.9-9.14,49.12-19.89,14.76-11.17,27.04-25.31,37.85-40.25,12.01-16.61,22.6-34.38,32.18-52.49,9.92-18.76,18.56-38.23,25.18-58.4,6.62-20.15,11.22-41.03,12.97-62.19,1.35-16.34.21-33.5-5.68-48.93-5.56-14.58-16.15-27.33-31.42-32.13s-32.54-.22-45.72,8.75c-6.84,4.66-12.87,10.5-17.73,17.2-5.46,7.54-9.12,16.18-11.5,25.14-5.47,20.6-3.96,42.35-.56,63.16s8.29,41.23,13.83,61.46,12.01,40.31,19.32,60.02c7.25,19.55,15.36,38.78,24.27,57.63,8.96,18.94,18.74,37.49,29.32,55.58,10.57,18.09,21.94,35.71,34.06,52.8,5.82,8.2,11.81,16.27,17.96,24.21.39.51,1.1-.2.71-.71-12.67-16.36-24.63-33.27-35.83-50.67s-21.54-35.11-31.15-53.32-18.39-36.7-26.39-55.6c-8.04-18.99-15.26-38.32-21.64-57.93-6.37-19.58-11.9-39.44-16.55-59.5s-9.21-41.33-9.88-62.39c-.62-19.66,2.31-40.72,13.5-57.38,9.15-13.63,23.51-24.44,39.62-28.16,7.77-1.79,15.95-1.79,23.61.52,7.61,2.3,14.46,6.78,19.83,12.62,10.91,11.87,15.48,28.38,16.95,44.09,1.74,18.65-.87,37.62-4.8,55.84-4.44,20.59-11.26,40.63-19.68,59.92-8.44,19.32-18.48,37.92-29.5,55.89-9.87,16.09-20.55,31.77-33.35,45.69-12.19,13.25-26.48,25.07-43.2,32.08-8.24,3.45-17.12,5.8-26.05,6.37-8.44.54-17.55-.64-24.73-5.42-3.76-2.51-6.72-6.02-8.54-10.16-1.92-4.39-2.51-9.24-2.45-14,.14-10,2.74-19.99,4.96-29.68,4.62-20.21,10.43-40.15,17.36-59.7s15.07-38.87,24.26-57.58c9.18-18.67,19.43-36.82,30.71-54.31,5.44-8.44,11.12-16.72,17.03-24.84l-.91-.12c4.32,21.88,8.64,43.76,12.97,65.64,4.31,21.8,8.61,43.59,12.92,65.39,2.44,12.33,4.87,24.65,7.31,36.98.03.16.19.32.35.35,10.06,1.84,17.21-6.72,21.42-14.72,2.64-5.02,4.36-10.37,6.12-15.74,2.35-7.18,4.69-14.36,7.01-21.54,9.16-28.27,18.14-56.59,26.94-84.97,8.81-28.38,17.43-56.81,25.89-85.3,8.48-28.56,16.78-57.18,24.9-85.85,8.12-28.67,16.07-57.39,23.83-86.15.94-3.49,1.88-6.97,2.82-10.46.07-.27-.09-.53-.35-.62-5.47-1.83-10.95-3.66-16.42-5.48-.16-.05-.38,0-.49.13-16.51,19.45-32.59,39.27-48.23,59.43-15.48,19.97-30.53,40.27-45.13,60.89-14.74,20.83-29.03,41.98-42.84,63.43-13.78,21.39-27.08,43.08-39.91,65.05-12.83,21.97-25.18,44.22-37.04,66.73s-23.23,45.28-34.09,68.29c-10.82,22.91-21.14,46.06-30.95,69.43-9.88,23.53-19.24,47.27-28.06,71.21-9.36,25.39-18.33,50.98-25.4,77.12-7.15,26.45-12.32,53.55-13.51,80.97-.29,6.6-.33,13.21-.14,19.81.02.64,1,.65,1,0,.14-31.23-.18-62.45-.99-93.67-.8-31.22-2.08-62.42-3.83-93.6-1.73-30.82-3.81-61.64-6.64-92.37-2.75-29.92-6.4-59.8-12.31-89.27-2.88-14.35-6.23-28.65-10.4-42.68-3.52-11.87-7.8-23.63-13.95-34.41s-13.55-19.61-23.34-26.36c-8.55-5.89-18.48-9.61-28.72-11.19-21.09-3.25-43.15,2.05-61.38,12.86-20.19,11.96-34.71,31.21-43.78,52.62-9.67,22.83-13.4,47.88-13.58,72.55-.2,28.51,4,57.17,11.84,84.56,6.92,24.18,16.77,47.48,29.92,68.94,12.1,19.74,26.83,37.96,44.05,53.47,16.74,15.07,35.88,27.56,56.83,35.92,10.61,4.23,21.66,7.4,32.92,9.31,11.29,1.91,23.43,2.4,34.39-1.42,10.65-3.71,18.7-11.81,22.22-22.55,3.58-10.95,2.75-22.97.67-34.12-2.15-11.53-5.58-22.91-9.52-33.94s-8.54-21.61-13.8-31.95c-10.6-20.84-23.78-40.32-38.75-58.26-15.24-18.26-32.35-34.93-50.73-50.02-18.39-15.1-38.05-28.64-58.61-40.62-10.56-6.15-21.36-11.91-32.36-17.23-12.81-6.19-25.95-11.78-39.57-15.93-13.08-3.99-26.6-6.6-40.29-7.09-.22,0-.43.16-.48.37-1.92,6.96,4.85,12.32,10.14,15.39,7.96,4.63,16.36,8.63,24.64,12.66,16.85,8.2,34.04,15.72,51.41,22.76,17.49,7.09,35.18,13.7,52.95,20.05,17.97,6.42,36.02,12.6,54.15,18.56,18.16,5.97,36.4,11.72,54.71,17.24,18.31,5.52,36.69,10.81,55.13,15.87,18.44,5.06,36.94,9.89,55.5,14.49s37.18,8.96,55.85,13.1c18.67,4.13,37.39,8.03,56.16,11.7s37.58,7.1,56.43,10.29c4.58.78,9.15,1.54,13.73,2.28.52.08.93-.63.39-.91-26.9-14-53.81-28-80.71-42-26.76-13.92-53.51-27.85-80.27-41.77-26.9-14-53.81-28-80.71-42-26.76-13.92-53.51-27.85-80.27-41.77-26.9-14-53.81-28-80.71-42-3.25-1.69-6.5-3.38-9.76-5.08-.31-.16-.79.03-.75.43,2.32,25.01,7.14,49.77,14.32,73.84,7.18,24.07,16.69,47.44,28.33,69.69s25.27,43.15,40.87,62.66c15.69,19.62,33.24,38.19,53.18,53.55,19.52,15.03,42.09,27.09,66.79,30.32,3.08.4,6.19.66,9.29.79.31.01.58-.33.48-.63-6.3-18.92-12.59-37.83-18.99-56.71-6.4-18.89-12.9-37.74-19.59-56.52-6.69-18.77-13.58-37.47-20.77-56.06s-14.57-36.82-22.39-55.01c-7.75-18.04-15.87-35.92-24.46-53.58-7.89-16.23-16.18-32.26-24.91-48.05s-17.84-31.22-27.47-46.4c-9.61-15.15-19.71-30-30.34-44.46-10.55-14.35-21.61-28.33-33.23-41.83-11.68-13.57-23.92-26.67-36.72-39.19-3.13-3.06-6.29-6.08-9.49-9.07-.39-.37-1.13.13-.79.61,11.2,15.34,22.4,30.68,33.45,46.13s21.86,30.86,32.42,46.55,20.43,30.99,30.07,46.85c9.15,15.06,17.93,30.34,26.33,45.83,8.37,15.42,16.36,31.05,23.97,46.86,7.64,15.88,14.9,31.94,21.76,48.17,6.87,16.26,13.35,32.69,19.42,49.26,6.06,16.54,11.72,33.24,16.97,50.06s10.05,33.62,14.46,50.61c4.41,16.98,8.4,34.07,11.98,51.25.88,4.24,1.74,8.48,2.57,12.73.09.48.87.48.96,0,5.06-25.91,7.52-52.3,7.35-78.7-.17-26.39-2.96-52.77-8.36-78.6-2.34-11.2-4.87-22.79-10.78-32.73-2.87-4.83-6.57-9.04-10.99-12.5s-9.5-6.25-14.64-8.66c-11.32-5.29-23.12-9.7-34.91-13.85s-24.58-8.11-37.08-11.44c-24.97-6.65-50.46-11.36-76.16-14.07-3.18-.34-6.36-.64-9.54-.91-.37-.03-.64.45-.43.75,13.41,19.24,26.86,38.56,37.64,59.44,5.43,10.52,10.15,21.42,13.75,32.71s6.16,23.22,8.16,35.05c4.01,23.76,6,47.86,11.16,71.43,4.64,21.18,12.31,41.56,23.06,60.4,10.46,18.36,23.67,35.17,39.09,49.62,1.88,1.76,3.8,3.49,5.74,5.18.5.43,1.1-.21.71-.71-14.38-18.37-28.13-37.23-41.21-56.54s-25.39-38.89-37.06-58.96c-11.64-20-22.6-40.4-32.85-61.15s-20.29-42.35-28.85-64.17c-8.71-22.19-15.72-45.47-16.63-69.44-.11-2.93-.13-5.86-.05-8.79l-.63.48c20.95,8.07,40.97,18.49,59.68,30.88,18.62,12.33,35.93,26.6,51.67,42.44s30.08,33.47,42.45,52.23c12.29,18.64,22.73,38.51,31.02,59.24s14.43,42.39,18.11,64.45c.44,2.66.85,5.32,1.22,7.99l.96-.27c-4.75-19.85-11.42-39.23-19.81-57.84-8.42-18.68-18.57-36.59-30.22-53.45-11.54-16.7-24.54-32.39-38.82-46.83-14.36-14.51-30-27.76-46.71-39.48-16.77-11.76-34.63-21.99-53.32-30.4-2.27-1.02-4.55-2.01-6.84-2.98l-.25.93c21.99,1.22,39.88,16.26,56.06,29.7,16.3,13.55,32.55,27.24,47.5,42.3,14.74,14.84,28.26,31.09,38.51,49.4,5.25,9.37,9.5,19.22,12.87,29.41s6.01,20.83,8.52,31.38c4.98,20.94,9.61,42.28,19.38,61.63,1.2,2.38,2.49,4.73,3.84,7.03l.86-.5c-11.58-19.27-24.31-37.82-37.66-55.91-13.33-18.05-27.27-35.65-41.33-53.14-14.13-17.57-28.4-35.04-42.32-52.77-13.88-17.68-27.43-35.63-40.12-54.19-12.59-18.42-24.34-37.45-34.64-57.25-1.3-2.49-2.57-4.99-3.82-7.51l-.79.61c19.32,17.4,32.43,41.29,37.1,66.84,4.66,25.55.24,52.16-11.83,75.1-6.73,12.8-15.76,24.34-26.66,33.85l.79.61c12.16-20.74,18.59-44.54,19.41-68.52.82-23.87-3.86-47.96-13.81-69.69-5.63-12.3-12.99-23.78-21.9-33.96-.29-.33-.85-.06-.85.35.07,29.07-.16,58.13-.71,87.2-.54,28.9-1.4,57.79-2.55,86.66-.65,16.26-1.4,32.52-2.25,48.78-.03.54.66.62.93.25,10.6-14.5,20.6-29.49,29.11-45.32,8.42-15.65,15.39-32.17,19.75-49.43,3.91-15.51,5.61-31.49,4.35-47.46-1.18-14.91-4.76-29.68-11.05-43.27s-15.12-25.6-26.58-34.98c-1.39-1.14-2.82-2.23-4.27-3.29-.49-.35-.95.38-.61.79,13.97,16.28,21.09,37.48,22.13,58.74,1.09,22.3-4.7,44.38-14.34,64.37-5.57,11.55-12.39,22.46-20.03,32.75l.91.12c-3.16-21.7-4.78-43.63-4.83-65.56-.05-21.85,1.43-43.71,4.47-65.34,1.7-12.15,3.9-24.23,6.56-36.21h-.96c6.52,23.07,10.2,46.9,11.02,70.86.82,23.88-1.19,47.85-6.01,71.25-2.7,13.13-6.3,26.07-10.75,38.72l.84-.22c-13.17-16.05-24.56-33.54-33.93-52.07-4.67-9.24-8.84-18.74-12.47-28.44-3.34-8.93-5.96-18.06-8.81-27.16-4.37-13.92-10.47-30.72-24.99-36.91-18.42-7.84-37.92,6.24-50.61,18.49-13.35,12.89-23.5,29.09-29.2,46.75-.71,2.19-1.34,4.4-1.91,6.63-.16.62.8.89.96.27h0Z"/>
  </g>
</svg>